<?xml version="1.0" encoding="utf-8"?>
<!-- Generator: Adobe Illustrator 27.5.0, SVG Export Plug-In . SVG Version: 6.00 Build 0)  -->
<svg version="1.1" xmlns="http://www.w3.org/2000/svg" xmlns:xlink="http://www.w3.org/1999/xlink" x="0px" y="0px"
	 viewBox="0 0 3710 3710" style="enable-background:new 0 0 3710 3710;" xml:space="preserve">
<g id="Background">
	<g>
		<g>
			<rect style="fill:#FFFFFF;" width="3710" height="3710"/>
		</g>
	</g>
</g>
<g id="Illustration">
	<g>
		<path style="fill:#F4F7FA;" d="M1894.118,543.764C1182.55,523.042,566.182,1032.218,473.059,1700.319
			c-101.816,730.478,458.567,1387.733,1148.095,1493.002c857.657,130.938,1689.535-626.55,1614.841-1448.311
			C3179.719,1125.886,2617.441,564.828,1894.118,543.764z"/>
		<g>
			<g>
				<linearGradient id="SVGID_1_" gradientUnits="userSpaceOnUse" x1="1344.4961" y1="2556.7397" x2="1970.5803" y2="3047.7866">
					<stop  offset="0" style="stop-color:#FF9085"/>
					<stop  offset="1" style="stop-color:#FB6FBB"/>
				</linearGradient>
				<path style="fill:url(#SVGID_1_);" d="M1056.137,2845.855v109.042l0.158,0.006c6.684,65.813,281.953,186.684,681.763,188.919
					c587.858,3.285,786.386-127.988,795.624-195.204h0.219v-100.476L1056.137,2845.855z"/>
				
					<linearGradient id="SVGID_00000065069379414667909880000016598657580393501611_" gradientUnits="userSpaceOnUse" x1="3024.5913" y1="3037.6248" x2="1197.6582" y2="2736.1409" gradientTransform="matrix(1 0.0219 0 1 0 -26.6952)">
					<stop  offset="0" style="stop-color:#311944"/>
					<stop  offset="1" style="stop-color:#893976"/>
				</linearGradient>
				<path style="fill:url(#SVGID_00000065069379414667909880000016598657580393501611_);" d="M2533.901,2848.547
					c0,67.782-339.189,121.305-750.833,119.576c-404.355-1.698-726.932-56.252-726.932-121.876
					c0-65.624,322.578-119.174,726.932-119.614C2194.712,2726.187,2533.901,2780.766,2533.901,2848.547z"/>
				
					<linearGradient id="SVGID_00000159461001019346922140000000389309995947475353_" gradientUnits="userSpaceOnUse" x1="1796.6826" y1="2929.864" x2="1791.59" y2="2670.1357" gradientTransform="matrix(1 0.0219 0 1 0 -26.6952)">
					<stop  offset="0" style="stop-color:#FF9085"/>
					<stop  offset="1" style="stop-color:#FB6FBB"/>
				</linearGradient>
				<path style="fill:url(#SVGID_00000159461001019346922140000000389309995947475353_);" d="M2528.176,2840.299
					c0,67.273-336.599,120.507-745.199,118.927c-401.475-1.553-721.831-55.618-721.831-120.782
					c0-65.163,320.355-118.418,721.831-118.955C2191.577,2718.941,2528.176,2773.025,2528.176,2840.299z"/>
				
					<linearGradient id="SVGID_00000110454538236191788500000016695271131329452968_" gradientUnits="userSpaceOnUse" x1="1348.4413" y1="2551.2629" x2="1970.965" y2="3039.5171">
					<stop  offset="0" style="stop-color:#FF9085"/>
					<stop  offset="1" style="stop-color:#FB6FBB"/>
				</linearGradient>
				<polygon style="fill:url(#SVGID_00000110454538236191788500000016695271131329452968_);" points="2533.901,2948.619 
					2533.901,2848.143 1056.137,2845.855 1056.137,2954.897 				"/>
				
					<linearGradient id="SVGID_00000026849692829209325760000008336902321507802032_" gradientUnits="userSpaceOnUse" x1="3024.5913" y1="3037.6248" x2="1197.6582" y2="2736.1409" gradientTransform="matrix(1 0.0219 0 1 0 -26.6952)">
					<stop  offset="0" style="stop-color:#311944"/>
					<stop  offset="1" style="stop-color:#893976"/>
				</linearGradient>
				<path style="fill:url(#SVGID_00000026849692829209325760000008336902321507802032_);" d="M2533.901,2848.547
					c0,67.782-339.189,121.305-750.833,119.576c-404.355-1.698-726.932-56.252-726.932-121.876
					c0-65.624,322.578-119.174,726.932-119.614C2194.712,2726.187,2533.901,2780.766,2533.901,2848.547z"/>
				
					<linearGradient id="SVGID_00000084493060464329823940000013250713791957775793_" gradientUnits="userSpaceOnUse" x1="1796.6826" y1="2929.864" x2="1791.59" y2="2670.1357" gradientTransform="matrix(1 0.0219 0 1 0 -26.6952)">
					<stop  offset="0" style="stop-color:#FF9085"/>
					<stop  offset="1" style="stop-color:#FB6FBB"/>
				</linearGradient>
				<path style="fill:url(#SVGID_00000084493060464329823940000013250713791957775793_);" d="M2528.176,2840.299
					c0,67.273-336.599,120.507-745.199,118.927c-401.475-1.553-721.831-55.618-721.831-120.782
					c0-65.163,320.355-118.418,721.831-118.955C2191.577,2718.941,2528.176,2773.025,2528.176,2840.299z"/>
			</g>
			<g>
				
					<linearGradient id="SVGID_00000150785993472516324550000015412247058391294874_" gradientUnits="userSpaceOnUse" x1="1344.6694" y1="2349.9397" x2="1971.4336" y2="2841.5198">
					<stop  offset="0" style="stop-color:#FF9085"/>
					<stop  offset="1" style="stop-color:#FB6FBB"/>
				</linearGradient>
				<path style="fill:url(#SVGID_00000150785993472516324550000015412247058391294874_);" d="M1056.137,2639.191v109.042
					l0.158,0.006c6.684,65.814,281.952,180.955,681.763,178.9c633.56-3.258,786.386-117.969,795.624-185.186h0.219v-100.475
					L1056.137,2639.191z"/>
				
					<linearGradient id="SVGID_00000182494711776258688180000016511537332222443177_" gradientUnits="userSpaceOnUse" x1="3024.5916" y1="2830.9597" x2="1197.6582" y2="2529.4756" gradientTransform="matrix(1 0.0219 0 1 0 -26.6952)">
					<stop  offset="0" style="stop-color:#311944"/>
					<stop  offset="1" style="stop-color:#893976"/>
				</linearGradient>
				<path style="fill:url(#SVGID_00000182494711776258688180000016511537332222443177_);" d="M2533.901,2641.883
					c0,67.782-339.189,121.305-750.833,119.576c-404.355-1.699-726.932-56.252-726.932-121.876
					c0-65.624,322.578-119.173,726.932-119.613C2194.712,2519.521,2533.901,2574.101,2533.901,2641.883z"/>
				
					<linearGradient id="SVGID_00000057867948129830385770000010797408646658852522_" gradientUnits="userSpaceOnUse" x1="1796.6826" y1="2723.198" x2="1791.59" y2="2463.4707" gradientTransform="matrix(1 0.0219 0 1 0 -26.6952)">
					<stop  offset="0" style="stop-color:#FF9085"/>
					<stop  offset="1" style="stop-color:#FB6FBB"/>
				</linearGradient>
				<path style="fill:url(#SVGID_00000057867948129830385770000010797408646658852522_);" d="M2528.176,2633.634
					c0,67.273-336.599,120.507-745.199,118.926c-401.475-1.552-721.831-55.617-721.831-120.781
					c0-65.164,320.355-118.418,721.831-118.956C2191.577,2512.275,2528.176,2566.361,2528.176,2633.634z"/>
				
					<linearGradient id="SVGID_00000063594148089863727120000013572450198925766273_" gradientUnits="userSpaceOnUse" x1="1348.4415" y1="2344.5981" x2="1970.9647" y2="2832.8521">
					<stop  offset="0" style="stop-color:#FF9085"/>
					<stop  offset="1" style="stop-color:#FB6FBB"/>
				</linearGradient>
				<polygon style="fill:url(#SVGID_00000063594148089863727120000013572450198925766273_);" points="2533.901,2741.953 
					2533.901,2641.478 1056.137,2639.191 1056.137,2748.233 				"/>
				
					<linearGradient id="SVGID_00000173145373551120397920000010447853075219455413_" gradientUnits="userSpaceOnUse" x1="3024.5916" y1="2830.9597" x2="1197.6582" y2="2529.4756" gradientTransform="matrix(1 0.0219 0 1 0 -26.6952)">
					<stop  offset="0" style="stop-color:#311944"/>
					<stop  offset="1" style="stop-color:#893976"/>
				</linearGradient>
				<path style="fill:url(#SVGID_00000173145373551120397920000010447853075219455413_);" d="M2533.901,2641.883
					c0,67.782-339.189,121.305-750.833,119.576c-404.355-1.699-726.932-56.252-726.932-121.876
					c0-65.624,322.578-119.173,726.932-119.613C2194.712,2519.521,2533.901,2574.101,2533.901,2641.883z"/>
				
					<linearGradient id="SVGID_00000018207008447044481240000001161591463945977991_" gradientUnits="userSpaceOnUse" x1="1796.6826" y1="2723.198" x2="1791.59" y2="2463.4707" gradientTransform="matrix(1 0.0219 0 1 0 -26.6952)">
					<stop  offset="0" style="stop-color:#FF9085"/>
					<stop  offset="1" style="stop-color:#FB6FBB"/>
				</linearGradient>
				<path style="fill:url(#SVGID_00000018207008447044481240000001161591463945977991_);" d="M2528.176,2633.634
					c0,67.273-336.599,120.507-745.199,118.926c-401.475-1.552-721.831-55.617-721.831-120.781
					c0-65.164,320.355-118.418,721.831-118.956C2191.577,2512.275,2528.176,2566.361,2528.176,2633.634z"/>
			</g>
			<g>
				
					<linearGradient id="SVGID_00000163751137322260934930000008694674967166003858_" gradientUnits="userSpaceOnUse" x1="1344.6698" y1="2142.7664" x2="1971.434" y2="2634.3464">
					<stop  offset="0" style="stop-color:#FF9085"/>
					<stop  offset="1" style="stop-color:#FB6FBB"/>
				</linearGradient>
				<path style="fill:url(#SVGID_00000163751137322260934930000008694674967166003858_);" d="M1056.137,2432.018v109.041
					l0.158,0.007c6.684,65.813,281.952,180.955,681.763,178.9c633.56-3.258,786.386-117.97,795.624-185.186h0.219v-100.476
					L1056.137,2432.018z"/>
				
					<linearGradient id="SVGID_00000127739521338525867770000014834092088043051705_" gradientUnits="userSpaceOnUse" x1="3024.5916" y1="2623.7861" x2="1197.6582" y2="2322.3022" gradientTransform="matrix(1 0.0219 0 1 0 -26.6952)">
					<stop  offset="0" style="stop-color:#311944"/>
					<stop  offset="1" style="stop-color:#893976"/>
				</linearGradient>
				<path style="fill:url(#SVGID_00000127739521338525867770000014834092088043051705_);" d="M2533.901,2434.709
					c0,67.782-339.189,121.305-750.833,119.575c-404.355-1.698-726.932-56.252-726.932-121.876
					c0-65.624,322.578-119.173,726.932-119.613C2194.712,2312.348,2533.901,2366.927,2533.901,2434.709z"/>
				
					<linearGradient id="SVGID_00000126313170923605724990000015157255250955052203_" gradientUnits="userSpaceOnUse" x1="1796.6826" y1="2516.0254" x2="1791.59" y2="2256.2979" gradientTransform="matrix(1 0.0219 0 1 0 -26.6952)">
					<stop  offset="0" style="stop-color:#FF9085"/>
					<stop  offset="1" style="stop-color:#FB6FBB"/>
				</linearGradient>
				<path style="fill:url(#SVGID_00000126313170923605724990000015157255250955052203_);" d="M2528.176,2426.461
					c0,67.273-336.599,120.506-745.199,118.926c-401.475-1.552-721.831-55.617-721.831-120.781
					c0-65.164,320.355-118.419,721.831-118.955C2191.577,2305.102,2528.176,2359.188,2528.176,2426.461z"/>
				
					<linearGradient id="SVGID_00000067931382529045618630000007549011588563484842_" gradientUnits="userSpaceOnUse" x1="1348.442" y1="2137.4248" x2="1970.9651" y2="2625.6787">
					<stop  offset="0" style="stop-color:#FF9085"/>
					<stop  offset="1" style="stop-color:#FB6FBB"/>
				</linearGradient>
				<polygon style="fill:url(#SVGID_00000067931382529045618630000007549011588563484842_);" points="2533.901,2534.78 
					2533.901,2434.304 1056.137,2432.018 1056.137,2541.059 				"/>
				
					<linearGradient id="SVGID_00000155116325813998719020000012273337716927968399_" gradientUnits="userSpaceOnUse" x1="3024.5916" y1="2623.7861" x2="1197.6582" y2="2322.3022" gradientTransform="matrix(1 0.0219 0 1 0 -26.6952)">
					<stop  offset="0" style="stop-color:#311944"/>
					<stop  offset="1" style="stop-color:#893976"/>
				</linearGradient>
				<path style="fill:url(#SVGID_00000155116325813998719020000012273337716927968399_);" d="M2533.901,2434.709
					c0,67.782-339.189,121.305-750.833,119.575c-404.355-1.698-726.932-56.252-726.932-121.876
					c0-65.624,322.578-119.173,726.932-119.613C2194.712,2312.348,2533.901,2366.927,2533.901,2434.709z"/>
				
					<linearGradient id="SVGID_00000141446325565594827750000000961138197711884958_" gradientUnits="userSpaceOnUse" x1="1796.6826" y1="2516.0254" x2="1791.59" y2="2256.2979" gradientTransform="matrix(1 0.0219 0 1 0 -26.6952)">
					<stop  offset="0" style="stop-color:#FF9085"/>
					<stop  offset="1" style="stop-color:#FB6FBB"/>
				</linearGradient>
				<path style="fill:url(#SVGID_00000141446325565594827750000000961138197711884958_);" d="M2528.176,2426.461
					c0,67.273-336.599,120.506-745.199,118.926c-401.475-1.552-721.831-55.617-721.831-120.781
					c0-65.164,320.355-118.419,721.831-118.955C2191.577,2305.102,2528.176,2359.188,2528.176,2426.461z"/>
			</g>
			<g>
				
					<linearGradient id="SVGID_00000155136246081897064880000003890057889035771789_" gradientUnits="userSpaceOnUse" x1="1344.6691" y1="1935.5934" x2="1971.4336" y2="2427.1738">
					<stop  offset="0" style="stop-color:#FF9085"/>
					<stop  offset="1" style="stop-color:#FB6FBB"/>
				</linearGradient>
				<path style="fill:url(#SVGID_00000155136246081897064880000003890057889035771789_);" d="M1056.137,2224.844v109.042
					l0.158,0.006c6.684,65.813,281.952,180.954,681.763,178.899c633.56-3.258,786.386-117.969,795.624-185.184h0.219v-100.475
					L1056.137,2224.844z"/>
				
					<linearGradient id="SVGID_00000127761088068616001830000004108546941639958709_" gradientUnits="userSpaceOnUse" x1="3024.5916" y1="2416.6133" x2="1197.6581" y2="2115.1294" gradientTransform="matrix(1 0.0219 0 1 0 -26.6952)">
					<stop  offset="0" style="stop-color:#311944"/>
					<stop  offset="1" style="stop-color:#893976"/>
				</linearGradient>
				<path style="fill:url(#SVGID_00000127761088068616001830000004108546941639958709_);" d="M2533.901,2227.536
					c0,67.782-339.189,121.305-750.833,119.576c-404.355-1.698-726.932-56.252-726.932-121.876
					c0-65.625,322.578-119.173,726.932-119.614C2194.712,2105.175,2533.901,2159.754,2533.901,2227.536z"/>
				
					<linearGradient id="SVGID_00000160894502083291983850000005981748038127339191_" gradientUnits="userSpaceOnUse" x1="1796.6826" y1="2308.8521" x2="1791.59" y2="2049.1245" gradientTransform="matrix(1 0.0219 0 1 0 -26.6952)">
					<stop  offset="0" style="stop-color:#FF9085"/>
					<stop  offset="1" style="stop-color:#FB6FBB"/>
				</linearGradient>
				<path style="fill:url(#SVGID_00000160894502083291983850000005981748038127339191_);" d="M2528.176,2219.287
					c0,67.273-336.599,120.508-745.199,118.927c-401.475-1.553-721.831-55.617-721.831-120.781
					c0-65.164,320.355-118.419,721.831-118.956C2191.577,2097.93,2528.176,2152.014,2528.176,2219.287z"/>
				
					<linearGradient id="SVGID_00000183239440923447292170000017063463104467432380_" gradientUnits="userSpaceOnUse" x1="1348.4412" y1="1930.2518" x2="1970.9648" y2="2418.5061">
					<stop  offset="0" style="stop-color:#FF9085"/>
					<stop  offset="1" style="stop-color:#FB6FBB"/>
				</linearGradient>
				<polygon style="fill:url(#SVGID_00000183239440923447292170000017063463104467432380_);" points="2533.901,2327.608 
					2533.901,2227.132 1056.137,2224.844 1056.137,2333.886 				"/>
				
					<linearGradient id="SVGID_00000067220751531780046420000007096904886862359989_" gradientUnits="userSpaceOnUse" x1="3024.5916" y1="2416.6133" x2="1197.6581" y2="2115.1294" gradientTransform="matrix(1 0.0219 0 1 0 -26.6952)">
					<stop  offset="0" style="stop-color:#311944"/>
					<stop  offset="1" style="stop-color:#893976"/>
				</linearGradient>
				<path style="fill:url(#SVGID_00000067220751531780046420000007096904886862359989_);" d="M2533.901,2227.536
					c0,67.782-339.189,121.305-750.833,119.576c-404.355-1.698-726.932-56.252-726.932-121.876
					c0-65.625,322.578-119.173,726.932-119.614C2194.712,2105.175,2533.901,2159.754,2533.901,2227.536z"/>
				
					<linearGradient id="SVGID_00000128466951970483188340000002631105815045066138_" gradientUnits="userSpaceOnUse" x1="1796.6826" y1="2308.8521" x2="1791.59" y2="2049.1245" gradientTransform="matrix(1 0.0219 0 1 0 -26.6952)">
					<stop  offset="0" style="stop-color:#FF9085"/>
					<stop  offset="1" style="stop-color:#FB6FBB"/>
				</linearGradient>
				<path style="fill:url(#SVGID_00000128466951970483188340000002631105815045066138_);" d="M2528.176,2219.287
					c0,67.273-336.599,120.508-745.199,118.927c-401.475-1.553-721.831-55.617-721.831-120.781
					c0-65.164,320.355-118.419,721.831-118.956C2191.577,2097.93,2528.176,2152.014,2528.176,2219.287z"/>
			</g>
			<g>
				
					<linearGradient id="SVGID_00000154413040844410446120000004150367749986493593_" gradientUnits="userSpaceOnUse" x1="1344.6694" y1="1728.4202" x2="1971.4336" y2="2220.0002">
					<stop  offset="0" style="stop-color:#FF9085"/>
					<stop  offset="1" style="stop-color:#FB6FBB"/>
				</linearGradient>
				<path style="fill:url(#SVGID_00000154413040844410446120000004150367749986493593_);" d="M1056.137,2017.671v109.041
					l0.158,0.008c6.684,65.813,281.952,180.955,681.763,178.899c633.56-3.258,786.386-117.969,795.624-185.185h0.219v-100.475
					L1056.137,2017.671z"/>
				
					<linearGradient id="SVGID_00000095337749249608950360000017938223400442298001_" gradientUnits="userSpaceOnUse" x1="3024.5916" y1="2209.4395" x2="1197.6583" y2="1907.9557" gradientTransform="matrix(1 0.0219 0 1 0 -26.6952)">
					<stop  offset="0" style="stop-color:#311944"/>
					<stop  offset="1" style="stop-color:#893976"/>
				</linearGradient>
				<path style="fill:url(#SVGID_00000095337749249608950360000017938223400442298001_);" d="M2533.901,2020.362
					c0,67.783-339.189,121.306-750.833,119.576c-404.355-1.698-726.932-56.253-726.932-121.876
					c0-65.625,322.578-119.174,726.932-119.614C2194.712,1898.001,2533.901,1952.581,2533.901,2020.362z"/>
				
					<linearGradient id="SVGID_00000120557906247506398130000015638376673827050151_" gradientUnits="userSpaceOnUse" x1="1796.6826" y1="2101.6787" x2="1791.59" y2="1841.9513" gradientTransform="matrix(1 0.0219 0 1 0 -26.6952)">
					<stop  offset="0" style="stop-color:#FF9085"/>
					<stop  offset="1" style="stop-color:#FB6FBB"/>
				</linearGradient>
				<path style="fill:url(#SVGID_00000120557906247506398130000015638376673827050151_);" d="M2528.176,2012.114
					c0,67.273-336.599,120.507-745.199,118.927c-401.475-1.553-721.831-55.617-721.831-120.782
					c0-65.163,320.355-118.417,721.831-118.955C2191.577,1890.756,2528.176,1944.841,2528.176,2012.114z"/>
				
					<linearGradient id="SVGID_00000029029768117939086220000008157337313329334450_" gradientUnits="userSpaceOnUse" x1="1348.4419" y1="1723.0782" x2="1970.9651" y2="2211.332">
					<stop  offset="0" style="stop-color:#FF9085"/>
					<stop  offset="1" style="stop-color:#FB6FBB"/>
				</linearGradient>
				<polygon style="fill:url(#SVGID_00000029029768117939086220000008157337313329334450_);" points="2533.901,2120.434 
					2533.901,2019.958 1056.137,2017.671 1056.137,2126.712 				"/>
				
					<linearGradient id="SVGID_00000120554858114198695910000003398387341625755578_" gradientUnits="userSpaceOnUse" x1="3024.5916" y1="2209.4395" x2="1197.6583" y2="1907.9557" gradientTransform="matrix(1 0.0219 0 1 0 -26.6952)">
					<stop  offset="0" style="stop-color:#311944"/>
					<stop  offset="1" style="stop-color:#893976"/>
				</linearGradient>
				<path style="fill:url(#SVGID_00000120554858114198695910000003398387341625755578_);" d="M2533.901,2020.362
					c0,67.783-339.189,121.306-750.833,119.576c-404.355-1.698-726.932-56.253-726.932-121.876
					c0-65.625,322.578-119.174,726.932-119.614C2194.712,1898.001,2533.901,1952.581,2533.901,2020.362z"/>
				
					<linearGradient id="SVGID_00000104673802439304203770000015598978283707222947_" gradientUnits="userSpaceOnUse" x1="1796.6826" y1="2101.6787" x2="1791.59" y2="1841.9513" gradientTransform="matrix(1 0.0219 0 1 0 -26.6952)">
					<stop  offset="0" style="stop-color:#FF9085"/>
					<stop  offset="1" style="stop-color:#FB6FBB"/>
				</linearGradient>
				<path style="fill:url(#SVGID_00000104673802439304203770000015598978283707222947_);" d="M2528.176,2012.114
					c0,67.273-336.599,120.507-745.199,118.927c-401.475-1.553-721.831-55.617-721.831-120.782
					c0-65.163,320.355-118.417,721.831-118.955C2191.577,1890.756,2528.176,1944.841,2528.176,2012.114z"/>
			</g>
			<g>
				
					<linearGradient id="SVGID_00000129891623753670621110000008673298843636981423_" gradientUnits="userSpaceOnUse" x1="1344.6697" y1="1521.2467" x2="1971.434" y2="2012.8269">
					<stop  offset="0" style="stop-color:#FF9085"/>
					<stop  offset="1" style="stop-color:#FB6FBB"/>
				</linearGradient>
				<path style="fill:url(#SVGID_00000129891623753670621110000008673298843636981423_);" d="M1056.137,1810.498v109.042
					l0.158,0.006c6.684,65.813,281.952,180.956,681.763,178.899c633.56-3.257,786.386-117.969,795.624-185.184h0.219v-100.476
					L1056.137,1810.498z"/>
				
					<linearGradient id="SVGID_00000178915517400762302240000014993863465857003444_" gradientUnits="userSpaceOnUse" x1="3024.5913" y1="2002.2665" x2="1197.6582" y2="1700.7826" gradientTransform="matrix(1 0.0219 0 1 0 -26.6952)">
					<stop  offset="0" style="stop-color:#311944"/>
					<stop  offset="1" style="stop-color:#893976"/>
				</linearGradient>
				<path style="fill:url(#SVGID_00000178915517400762302240000014993863465857003444_);" d="M2533.901,1813.189
					c0,67.782-339.189,121.306-750.833,119.576c-404.355-1.698-726.932-56.252-726.932-121.876
					c0-65.625,322.578-119.174,726.932-119.614C2194.712,1690.828,2533.901,1745.407,2533.901,1813.189z"/>
				
					<linearGradient id="SVGID_00000005235100535098389320000004568506759305116070_" gradientUnits="userSpaceOnUse" x1="1796.6826" y1="1894.506" x2="1791.59" y2="1634.7778" gradientTransform="matrix(1 0.0219 0 1 0 -26.6952)">
					<stop  offset="0" style="stop-color:#FF9085"/>
					<stop  offset="1" style="stop-color:#FB6FBB"/>
				</linearGradient>
				<path style="fill:url(#SVGID_00000005235100535098389320000004568506759305116070_);" d="M2528.176,1804.941
					c0,67.274-336.599,120.507-745.199,118.927c-401.475-1.552-721.831-55.618-721.831-120.782
					c0-65.163,320.355-118.418,721.831-118.956C2191.577,1683.583,2528.176,1737.668,2528.176,1804.941z"/>
				
					<linearGradient id="SVGID_00000071536814813831724470000004753077511179623571_" gradientUnits="userSpaceOnUse" x1="1348.4418" y1="1515.9052" x2="1970.9651" y2="2004.1592">
					<stop  offset="0" style="stop-color:#FF9085"/>
					<stop  offset="1" style="stop-color:#FB6FBB"/>
				</linearGradient>
				<polygon style="fill:url(#SVGID_00000071536814813831724470000004753077511179623571_);" points="2533.901,1913.261 
					2533.901,1812.785 1056.137,1810.498 1056.137,1919.54 				"/>
				
					<linearGradient id="SVGID_00000163768241111278761600000002108961064919707293_" gradientUnits="userSpaceOnUse" x1="3024.5913" y1="2002.2665" x2="1197.6582" y2="1700.7826" gradientTransform="matrix(1 0.0219 0 1 0 -26.6952)">
					<stop  offset="0" style="stop-color:#311944"/>
					<stop  offset="1" style="stop-color:#893976"/>
				</linearGradient>
				<path style="fill:url(#SVGID_00000163768241111278761600000002108961064919707293_);" d="M2533.901,1813.189
					c0,67.782-339.189,121.306-750.833,119.576c-404.355-1.698-726.932-56.252-726.932-121.876
					c0-65.625,322.578-119.174,726.932-119.614C2194.712,1690.828,2533.901,1745.407,2533.901,1813.189z"/>
				
					<linearGradient id="SVGID_00000109016891326477068970000013838800986095540645_" gradientUnits="userSpaceOnUse" x1="1796.6826" y1="1894.506" x2="1791.59" y2="1634.7778" gradientTransform="matrix(1 0.0219 0 1 0 -26.6952)">
					<stop  offset="0" style="stop-color:#FF9085"/>
					<stop  offset="1" style="stop-color:#FB6FBB"/>
				</linearGradient>
				<path style="fill:url(#SVGID_00000109016891326477068970000013838800986095540645_);" d="M2528.176,1804.941
					c0,67.274-336.599,120.507-745.199,118.927c-401.475-1.552-721.831-55.618-721.831-120.782
					c0-65.163,320.355-118.418,721.831-118.956C2191.577,1683.583,2528.176,1737.668,2528.176,1804.941z"/>
			</g>
			<g>
				
					<linearGradient id="SVGID_00000150091339060052271720000008687111247046146733_" gradientUnits="userSpaceOnUse" x1="1344.6694" y1="1314.0736" x2="1971.4338" y2="1805.6539">
					<stop  offset="0" style="stop-color:#FF9085"/>
					<stop  offset="1" style="stop-color:#FB6FBB"/>
				</linearGradient>
				<path style="fill:url(#SVGID_00000150091339060052271720000008687111247046146733_);" d="M1056.137,1603.325v109.042
					l0.158,0.007c6.684,65.813,281.952,180.954,681.763,178.899c633.56-3.257,786.386-117.969,795.624-185.185h0.219v-100.476
					L1056.137,1603.325z"/>
				
					<linearGradient id="SVGID_00000036249912750115771710000016325137786633992371_" gradientUnits="userSpaceOnUse" x1="3024.5916" y1="1795.0934" x2="1197.6582" y2="1493.6095" gradientTransform="matrix(1 0.0219 0 1 0 -26.6952)">
					<stop  offset="0" style="stop-color:#311944"/>
					<stop  offset="1" style="stop-color:#893976"/>
				</linearGradient>
				<path style="fill:url(#SVGID_00000036249912750115771710000016325137786633992371_);" d="M2533.901,1606.016
					c0,67.781-339.189,121.305-750.833,119.575c-404.355-1.698-726.932-56.252-726.932-121.876
					c0-65.624,322.578-119.173,726.932-119.613C2194.712,1483.656,2533.901,1538.234,2533.901,1606.016z"/>
				
					<linearGradient id="SVGID_00000028318060415009106480000016815468677280869274_" gradientUnits="userSpaceOnUse" x1="1796.6826" y1="1687.3328" x2="1791.59" y2="1427.6052" gradientTransform="matrix(1 0.0219 0 1 0 -26.6952)">
					<stop  offset="0" style="stop-color:#FF9085"/>
					<stop  offset="1" style="stop-color:#FB6FBB"/>
				</linearGradient>
				<path style="fill:url(#SVGID_00000028318060415009106480000016815468677280869274_);" d="M2528.176,1597.768
					c0,67.273-336.599,120.506-745.199,118.927c-401.475-1.553-721.831-55.617-721.831-120.782
					c0-65.163,320.355-118.418,721.831-118.954C2191.577,1476.41,2528.176,1530.494,2528.176,1597.768z"/>
				
					<linearGradient id="SVGID_00000180342855296003132540000004376423118872560813_" gradientUnits="userSpaceOnUse" x1="1348.4417" y1="1308.7321" x2="1970.965" y2="1796.9861">
					<stop  offset="0" style="stop-color:#FF9085"/>
					<stop  offset="1" style="stop-color:#FB6FBB"/>
				</linearGradient>
				<polygon style="fill:url(#SVGID_00000180342855296003132540000004376423118872560813_);" points="2533.901,1706.088 
					2533.901,1605.612 1056.137,1603.325 1056.137,1712.366 				"/>
				
					<linearGradient id="SVGID_00000179644676936405211900000002468609015193695893_" gradientUnits="userSpaceOnUse" x1="3024.5916" y1="1795.0934" x2="1197.6582" y2="1493.6095" gradientTransform="matrix(1 0.0219 0 1 0 -26.6952)">
					<stop  offset="0" style="stop-color:#311944"/>
					<stop  offset="1" style="stop-color:#893976"/>
				</linearGradient>
				<path style="fill:url(#SVGID_00000179644676936405211900000002468609015193695893_);" d="M2533.901,1606.016
					c0,67.781-339.189,121.305-750.833,119.575c-404.355-1.698-726.932-56.252-726.932-121.876
					c0-65.624,322.578-119.173,726.932-119.613C2194.712,1483.656,2533.901,1538.234,2533.901,1606.016z"/>
				
					<linearGradient id="SVGID_00000060742816072339541590000003404064829125585540_" gradientUnits="userSpaceOnUse" x1="1796.6826" y1="1687.3328" x2="1791.59" y2="1427.6052" gradientTransform="matrix(1 0.0219 0 1 0 -26.6952)">
					<stop  offset="0" style="stop-color:#FF9085"/>
					<stop  offset="1" style="stop-color:#FB6FBB"/>
				</linearGradient>
				<path style="fill:url(#SVGID_00000060742816072339541590000003404064829125585540_);" d="M2528.176,1597.768
					c0,67.273-336.599,120.506-745.199,118.927c-401.475-1.553-721.831-55.617-721.831-120.782
					c0-65.163,320.355-118.418,721.831-118.954C2191.577,1476.41,2528.176,1530.494,2528.176,1597.768z"/>
			</g>
		</g>
		<ellipse style="fill:#FFFFFF;" cx="1795.019" cy="1593.976" rx="329.341" ry="47.2"/>
		<path style="opacity:0.62;fill:#FFFFFF;" d="M2739.024,568.047c0-32.956-422.646-59.674-944.005-59.674
			s-944.005,26.717-944.005,59.674c0,1.273,0.706,2.536,1.949,3.79l525.682,1022.14c0,32.957,186.417,59.674,416.374,59.674
			c229.957,0,416.374-26.716,416.374-59.674l525.682-1022.14C2738.317,570.583,2739.024,569.32,2739.024,568.047z"/>
		<g>
			<g>
				<g>
					<g>
						
							<linearGradient id="SVGID_00000142172591338112936020000005427621892397320880_" gradientUnits="userSpaceOnUse" x1="1565.4489" y1="594.3972" x2="1659.0162" y2="1440.2417">
							<stop  offset="0" style="stop-color:#311944"/>
							<stop  offset="1" style="stop-color:#893976"/>
						</linearGradient>
						<path style="fill:url(#SVGID_00000142172591338112936020000005427621892397320880_);" d="M1642.855,992.123l30.412-0.167
							c0,0,72.852-92.163,122.082-97.257l4.561-259.66c-188.55,0.631-354.956,106.865-430.74,263.878L1642.855,992.123z"/>
						
							<linearGradient id="SVGID_00000051385045039777301720000000276521547753584260_" gradientUnits="userSpaceOnUse" x1="1909.2374" y1="1261.9238" x2="2274.2827" y2="1999.2434">
							<stop  offset="0" style="stop-color:#311944"/>
							<stop  offset="1" style="stop-color:#893976"/>
						</linearGradient>
						<path style="fill:url(#SVGID_00000051385045039777301720000000276521547753584260_);" d="M2006.593,1107.198
							c-15.458,85.316-93.178,152.391-188.394,155.352c-23.44,0.729-50.77-13.319-50.77-13.319s-25.07,1.379-29.362-0.294
							l-148.625,230.115c69.082,31.185,147.123,46.464,228.757,41.774c237.397-13.638,424.042-192.346,444.77-407.487
							L2006.593,1107.198z"/>
						
							<linearGradient id="SVGID_00000122687318974187432960000008810894992094168242_" gradientUnits="userSpaceOnUse" x1="1334.3682" y1="952.5817" x2="1869.5055" y2="1640.615">
							<stop  offset="0" style="stop-color:#311944"/>
							<stop  offset="1" style="stop-color:#893976"/>
						</linearGradient>
						<path style="fill:url(#SVGID_00000122687318974187432960000008810894992094168242_);" d="M1542.922,1454.845l29.734,1.028
							l120.255-231.823c-44.865-33.218-73.699-84.91-73.699-143.54c0-14.166,1.7-27.979,4.897-41.275l-244.937-92.439l-29.792,0.349
							c-14.756,43.255-22.723,89.279-22.723,136.957C1326.658,1241.977,1413.282,1377.904,1542.922,1454.845z"/>
					</g>
					<g>
						
							<linearGradient id="SVGID_00000031916964346469576940000014218758946793356446_" gradientUnits="userSpaceOnUse" x1="2380.6157" y1="473.5641" x2="2024.1987" y2="970.5859">
							<stop  offset="0" style="stop-color:#311944"/>
							<stop  offset="1" style="stop-color:#893976"/>
						</linearGradient>
						<path style="fill:url(#SVGID_00000031916964346469576940000014218758946793356446_);" d="M1847.316,895.829
							c86.709,12.903,153.378,80.097,161.297,163.138l419.239,12.148c0-0.089,0.001-0.177,0.002-0.266c0,0,0.001-0.135,0.002-0.266
							c0.002-0.315,63.202-10.163,63.201-10.203c-0.02-2.873-572.711-604.87-572.711-604.87l-63.52,10.438
							C1854.827,465.948,1849.819,752.535,1847.316,895.829z"/>
					</g>
				</g>
				<g>
					<g>
						
							<linearGradient id="SVGID_00000052089340561287690570000015286268788517058495_" gradientUnits="userSpaceOnUse" x1="1595.5117" y1="594.979" x2="1688.2139" y2="1433.0024">
							<stop  offset="0" style="stop-color:#FFC444"/>
							<stop  offset="0.9964" style="stop-color:#F36F56"/>
						</linearGradient>
						<path style="fill:url(#SVGID_00000052089340561287690570000015286268788517058495_);" d="M1672.853,992.123
							c30.363-53.12,86.854-90.632,152.494-97.424l4.561-259.66c-188.55,0.631-354.956,106.865-430.74,263.878L1672.853,992.123z"/>
						
							<linearGradient id="SVGID_00000037678021359835100450000014584895000109828993_" gradientUnits="userSpaceOnUse" x1="1939.236" y1="1261.9237" x2="2304.2813" y2="1999.2434">
							<stop  offset="0.0036" style="stop-color:#E38DDD"/>
							<stop  offset="1" style="stop-color:#9571F6"/>
						</linearGradient>
						<path style="fill:url(#SVGID_00000037678021359835100450000014584895000109828993_);" d="M2036.592,1107.198
							c-15.458,85.316-93.178,152.391-188.394,155.352c-28.391,0.883-55.518-4.018-80.131-13.613l-148.625,230.115
							c69.082,31.185,147.124,46.464,228.757,41.774c237.397-13.638,424.042-192.346,444.77-407.487L2036.592,1107.198z"/>
						
							<linearGradient id="SVGID_00000067206244841697763600000015165762902993674941_" gradientUnits="userSpaceOnUse" x1="1364.4736" y1="952.7194" x2="1880.6688" y2="1616.3984">
							<stop  offset="0" style="stop-color:#AA80F9"/>
							<stop  offset="0.9964" style="stop-color:#6165D7"/>
						</linearGradient>
						<path style="fill:url(#SVGID_00000067206244841697763600000015165762902993674941_);" d="M1572.92,1454.845l149.989-230.795
							c-44.866-33.218-73.699-84.91-73.699-143.54c0-14.166,1.7-27.979,4.897-41.275l-274.728-92.091
							c-14.756,43.255-22.723,89.279-22.723,136.957C1356.657,1241.977,1443.28,1377.904,1572.92,1454.845z"/>
					</g>
					<g>
						
							<linearGradient id="SVGID_00000175317495539950997610000000693667970695037883_" gradientUnits="userSpaceOnUse" x1="2464.7239" y1="394.7639" x2="2073.6582" y2="940.1033">
							<stop  offset="0" style="stop-color:#FF9085"/>
							<stop  offset="1" style="stop-color:#FB6FBB"/>
						</linearGradient>
						<path style="fill:url(#SVGID_00000175317495539950997610000000693667970695037883_);" d="M1910.52,884.881
							c86.709,12.903,153.378,80.096,161.297,163.138l419.239,12.148c0-0.177,0.003-0.354,0.003-0.532
							c0-307.553-245.049-570.754-573.03-604.635L1910.52,884.881z"/>
					</g>
				</g>
				<g style="opacity:0.3;">
					
						<linearGradient id="SVGID_00000040565661767563370290000006660074904353380232_" gradientUnits="userSpaceOnUse" x1="1764.9972" y1="1354.0341" x2="2122.2598" y2="2075.6343">
						<stop  offset="0.0036" style="stop-color:#E38DDD"/>
						<stop  offset="1" style="stop-color:#9571F6"/>
					</linearGradient>
					<path style="fill:url(#SVGID_00000040565661767563370290000006660074904353380232_);" d="M1790.877,1256.269
						c-7.806-2.005-15.424-4.452-22.812-7.332l-148.625,230.115c69.081,31.185,147.123,46.464,228.756,41.774
						c65.956-3.789,127.984-20.336,183.636-46.85c-56.176-8.507-106.33-29.811-146.379-65.316
						C1839.83,1368.212,1810.242,1311.953,1790.877,1256.269z"/>
				</g>
				<g style="opacity:0.3;">
					
						<linearGradient id="SVGID_00000011727531740380616520000007892262594447200187_" gradientUnits="userSpaceOnUse" x1="1552.6371" y1="600.5612" x2="1645.1476" y2="1436.8508">
						<stop  offset="0" style="stop-color:#FFC444"/>
						<stop  offset="0.9964" style="stop-color:#F36F56"/>
					</linearGradient>
					<path style="fill:url(#SVGID_00000011727531740380616520000007892262594447200187_);" d="M1740.986,738.102
						c-17.649-32.549-42.887-57.219-71.204-76.066c-119.155,41.113-217.305,126.433-270.614,236.88l273.685,93.206
						c18.999-33.239,48.23-60.365,83.529-77.679C1763.515,845.357,1771.607,794.574,1740.986,738.102z"/>
				</g>
			</g>
		</g>
		<g>
			<path style="opacity:0.62;fill:#FFFFFF;" d="M1146.575,524.683c83.753,239.699,287.041,828.033,386.365,1115.661
				c60.497,7.032,135.019,11.681,216.627,12.951l-81.606-1144.381C1467.324,510.619,1286.675,516.309,1146.575,524.683z"/>
			<path style="opacity:0.62;fill:#FFFFFF;" d="M2231.04,515.11c-36.416,243.083-131.786,846.329-176.036,1125.475
				c47.274-5.424,86.11-12.292,113.258-20.141c74.071-280.331,222.29-841.446,288.955-1094.922
				C2390.706,521.384,2314.544,517.864,2231.04,515.11z"/>
		</g>
		<g>
			
				<linearGradient id="SVGID_00000183953255634469102020000000791035330312905898_" gradientUnits="userSpaceOnUse" x1="2692.9385" y1="2993.8916" x2="2712.1941" y2="3340.4968" gradientTransform="matrix(-1 0 0 1 3763.5703 0)">
				<stop  offset="0" style="stop-color:#444B8C"/>
				<stop  offset="0.9964" style="stop-color:#26264F"/>
			</linearGradient>
			<path style="fill:url(#SVGID_00000183953255634469102020000000791035330312905898_);" d="M1022.397,3117.139
				c0,0-2.408,19.16-0.792,25.579c1.617,6.419,57.324,11.058,76.234,8.827c18.909-2.232-11.263-21.547-23.312-25.172
				C1062.48,3122.747,1022.397,3117.139,1022.397,3117.139z"/>
			
				<linearGradient id="SVGID_00000088855905060148620670000012530788677536037504_" gradientUnits="userSpaceOnUse" x1="2713.1311" y1="3105.0452" x2="2741.9651" y2="3105.0452" gradientTransform="matrix(-1 0 0 1 3763.5703 0)">
				<stop  offset="0" style="stop-color:#311944"/>
				<stop  offset="1" style="stop-color:#A03976"/>
			</linearGradient>
			<path style="fill:url(#SVGID_00000088855905060148620670000012530788677536037504_);" d="M1050.439,3085.177l-5.872,38.44
				c0,0-14.973,6.73-22.17,0.08l-0.792-40.237L1050.439,3085.177z"/>
			
				<linearGradient id="SVGID_00000173843529191482745790000002156101642345291408_" gradientUnits="userSpaceOnUse" x1="3041.4597" y1="2974.5337" x2="3060.7148" y2="3321.1277" gradientTransform="matrix(-1 0 0 1 3763.5703 0)">
				<stop  offset="0" style="stop-color:#444B8C"/>
				<stop  offset="0.9964" style="stop-color:#26264F"/>
			</linearGradient>
			<path style="fill:url(#SVGID_00000173843529191482745790000002156101642345291408_);" d="M736.398,3083.459
				c0,0,11.82,8.771,8.669,19.276c-3.15,10.504-30.731,52.595-50.388,64.541c-19.656,11.947-13.494-12.942-7.774-28.444
				c5.72-15.502,20.336-49.649,26.042-55.373C718.651,3077.736,736.398,3083.459,736.398,3083.459z"/>
			
				<linearGradient id="SVGID_00000152983467942562482390000000896822313647814033_" gradientUnits="userSpaceOnUse" x1="3005.9106" y1="3087.2656" x2="3063.2554" y2="3087.2656" gradientTransform="matrix(-1 0 0 1 3763.5703 0)">
				<stop  offset="0" style="stop-color:#311944"/>
				<stop  offset="1" style="stop-color:#A03976"/>
			</linearGradient>
			<path style="fill:url(#SVGID_00000152983467942562482390000000896822313647814033_);" d="M757.66,3041.227
				c-5.714,15.927-11.209,29.022-15.508,38.68c-9.511,21.367-14.708,29.385-20.595,36.336c-5.134,6.054-17.287,18.973-20.555,16.823
				c-3.318-2.181,5.574-17.888,22.712-63.889c2.489-6.677,10.349-27.95,10.349-27.95l0,0H757.66z"/>
			
				<linearGradient id="SVGID_00000109021558712614436140000005644148580021284529_" gradientUnits="userSpaceOnUse" x1="2697.657" y1="3070.3149" x2="2688.0291" y2="2698.0457" gradientTransform="matrix(-1 0 0 1 3763.5703 0)">
				<stop  offset="0" style="stop-color:#311944"/>
				<stop  offset="1" style="stop-color:#893976"/>
			</linearGradient>
			<path style="fill:url(#SVGID_00000109021558712614436140000005644148580021284529_);" d="M1167.102,2375.716
				c4.077,40.033,7.988,102.167,2.14,177.579c-7.622,98.251-27.268,160.422-51.906,265.18
				c-15.058,64.021-35.345,158.248-53.706,276.093c-4.26,2.438-16.793,8.85-32.929,6.456c-9.035-1.342-15.792-4.933-19.782-7.515
				c-48.172-147.198-33.945-238.417-10.697-295.248c9.909-24.226,21.923-43.337,28.345-80.575
				c8.497-49.267-2.009-76.808-16.992-190.929c-10.68-81.339-8.832-93.913-1.725-106.111
				C1038.253,2371.873,1125.13,2372.826,1167.102,2375.716z"/>
			
				<linearGradient id="SVGID_00000144334736222307860640000010230550845489654975_" gradientUnits="userSpaceOnUse" x1="2911.709" y1="3064.7793" x2="2902.0811" y2="2692.5103" gradientTransform="matrix(-1 0 0 1 3763.5703 0)">
				<stop  offset="0" style="stop-color:#311944"/>
				<stop  offset="1" style="stop-color:#893976"/>
			</linearGradient>
			<path style="fill:url(#SVGID_00000144334736222307860640000010230550845489654975_);" d="M1001.292,2392.834
				c-29.51,152.399-58.473,232.442-80.391,277.715c-5.405,11.164-23.44,47.186-40.489,98.829
				c-15.094,45.712-21.384,79.34-24.604,94.139c-10.174,46.715-35.319,114.923-102.977,204.386
				c-0.843,0.495-12.38,7.02-23.409,1.204c-5.581-2.946-8.365-7.64-9.47-9.828c8.845-85.534,18.999-157.408,27.812-212.88
				c1.85-11.634,9.994-62.536,22.765-129.786c4.999-26.319,12.322-64.88,21.095-104.487
				c10.923-49.323,27.673-116.423,53.487-196.828C897.171,2407.808,949.232,2400.324,1001.292,2392.834z"/>
			
				<linearGradient id="SVGID_00000062875881576851418310000010800880955598270381_" gradientUnits="userSpaceOnUse" x1="3043.1138" y1="2132.9268" x2="2908.3269" y2="1941.979" gradientTransform="matrix(-1 0 0 1 3763.5703 0)">
				<stop  offset="0" style="stop-color:#444B8C"/>
				<stop  offset="0.9964" style="stop-color:#26264F"/>
			</linearGradient>
			<path style="fill:url(#SVGID_00000062875881576851418310000010800880955598270381_);" d="M1026.432,1790.034
				c16.735-15.469,48.753-33.302,64.812-74.759c4.834-12.479,21.96-56.694-3.303-90.516c-14.993-20.077-42.845-33.709-67.393-28.883
				c-20.978,4.125-24.258,18.734-59.905,48.138c-13.875,11.445-36.177,29.842-61,40.07c-42.526,17.526-68.075,1.035-110.769,2.915
				c-52.45,2.313-113.379,31.584-142.735,74.151c-52.103,75.547,23.373,152.186-33.697,240.691
				c-18.701,28.996-27.916,22.495-72.208,78.626c-44.35,56.205-66.526,84.304-62.579,118.741
				c5.476,47.793,56.954,93.449,105.431,96.551c47.354,3.035,77.456-34.223,101.564-17.925
				c17.159,11.596,7.348,34.154,25.572,61.263c23.492,34.951,69.666,41.915,77.122,43.037
				c69.216,10.441,162.543-70.722,202.181-166.88C1061.001,2041.857,935.445,1874.137,1026.432,1790.034z"/>
			
				<linearGradient id="SVGID_00000175311359014003347070000014086022853625315760_" gradientUnits="userSpaceOnUse" x1="1132.5068" y1="2075.9075" x2="406.6855" y2="2497.3523">
				<stop  offset="0" style="stop-color:#FFC444"/>
				<stop  offset="0.9964" style="stop-color:#F36F56"/>
			</linearGradient>
			<path style="fill:url(#SVGID_00000175311359014003347070000014086022853625315760_);" d="M1310.447,1838.172
				c0.47-48.401-109.478-87.081-159.786-99.542c-78.256-19.388-140.922-7.215-156.142-3.994
				c-97.595,20.679-158.377,79.241-181.254,103.856c18.733,12.198,70.428,49.417,96.03,120.026
				c7.967,21.969,31.499,97.072-2.156,167.419c-19.392,40.535-53.697,70.966-79.749,94.083
				c-39.078,34.667-59.316,39.996-72.417,71.053c-14.267,33.823,0.109,50.313-17.608,73.468
				c-19.028,24.865-41.322,13.307-73.574,38.454c-33.038,25.754-21.281,46.954-51.347,75.417
				c-43.688,41.355-101.603,27.924-104.3,46.534c-2.321,16.008,38.841,37.726,73.812,46.534
				c69.255,17.444,129.661-11.834,147.624-20.86c49.733-24.984,41.142-41.156,79.058-60.205
				c63.491-31.892,106.881,3.598,251.491,7.253c78.31,1.981,117.907,2.425,139.601-24.069c19.811-24.201,9.397-50.747-2.491-165.15
				c-5.659-54.45-7.7-109.22-11.87-163.801c-11.796-154.401-12.156-167.988-1.684-189.337
				C1221.198,1878.838,1310.025,1881.61,1310.447,1838.172z"/>
			<g style="opacity:0.3;">
				
					<linearGradient id="SVGID_00000009578813110905740940000015609941594303845040_" gradientUnits="userSpaceOnUse" x1="2897.6541" y1="1728.4471" x2="3008.9067" y2="2408.8013" gradientTransform="matrix(-1 0 0 1 3763.5703 0)">
					<stop  offset="0" style="stop-color:#FFC444"/>
					<stop  offset="0.9964" style="stop-color:#F36F56"/>
				</linearGradient>
				<path style="fill:url(#SVGID_00000009578813110905740940000015609941594303845040_);" d="M612.443,2478.411
					c30.067-28.463,18.309-49.662,51.347-75.417c32.253-25.147,54.546-13.589,73.574-38.454
					c17.718-23.155,3.341-39.645,17.608-73.468c13.101-31.057,33.339-36.386,72.417-71.053
					c26.052-23.117,60.358-53.548,79.749-94.083c33.655-70.346,10.123-145.45,2.156-167.419
					c-25.602-70.609-77.297-107.828-96.03-120.026c1.803-1.944,3.93-4.156,6.205-6.488
					c123.424,16.961,195.386,88.278,204.286,109.396c20.572,48.814-11.996,66.748-12.837,207.533
					c-0.401,67.292,6.857,93.864-14.976,121.95c-24.972,32.123-53.748,22.182-89.858,64.185
					c-27.745,32.267-23.302,52.726-49.209,66.322c-27.857,14.616-45.601-2.42-77.021,4.281
					c-52.491,11.193-63.713,71.718-98.415,104.832c-26.241,25.04-74.759,42.547-170.444,23.756
					c-2.213-3.222-3.282-6.368-2.854-9.314C510.84,2506.335,568.755,2519.766,612.443,2478.411z"/>
			</g>
			
				<linearGradient id="SVGID_00000132068995101023557650000005956368545016098704_" gradientUnits="userSpaceOnUse" x1="2874.6409" y1="1732.2112" x2="2985.8931" y2="2412.5632" gradientTransform="matrix(-1 0 0 1 3763.5703 0)">
				<stop  offset="0" style="stop-color:#FFC444"/>
				<stop  offset="0.9964" style="stop-color:#F36F56"/>
			</linearGradient>
			<path style="fill:url(#SVGID_00000132068995101023557650000005956368545016098704_);" d="M986.316,1979.378
				c13.12,27.861-47.169,92.754-114.179,123.566c-13.652,6.281-111.698,51.36-155.396,8.012
				c-36.107-35.823-12.803-109.891-4.484-136.335c40.851-129.849,166.309-195.901,218.886-219.725
				c39.238,98.112,16.13,141.832,7.034,155.484c-9.502,14.259-36.021,44.214-64.185,70.603
				c-19.811,18.559-32.147,27.592-30.488,30.487c2.064,3.603,25.286-3.203,115.482-47.105
				C969.444,1966.058,981.833,1969.863,986.316,1979.378z"/>
			<path style="fill:#FFFFFF;" d="M1363.715,1819.307l-44.255,220.396c-1.419,7.063-6.892,12.61-13.936,14.121l-329.987,70.819
				c-11.825,2.538-22.761-7.023-21.824-19.081l17.416-224.15c0.604-7.779,6.115-14.285,13.692-16.154
				c52.345-12.919,253.823-61.302,360.087-67.589C1356.777,1796.967,1366.055,1807.65,1363.715,1819.307z"/>
			
				<linearGradient id="SVGID_00000144301594679736209690000007800371868835952532_" gradientUnits="userSpaceOnUse" x1="1934.3191" y1="1126.8895" x2="1911.8558" y2="1186.7916" gradientTransform="matrix(-0.8633 0.5047 0.5047 0.8633 2082.9607 -259.5109)">
				<stop  offset="0" style="stop-color:#311944"/>
				<stop  offset="1" style="stop-color:#A03976"/>
			</linearGradient>
			<path style="fill:url(#SVGID_00000144301594679736209690000007800371868835952532_);" d="M1034.579,1658.343
				c0,0-6.225,49.761-24.59,61.162c-18.367,11.396-48.057,26.288-51.328,30.331c-3.271,4.037,113.776,16.623,171.781-12.648l0,0
				c-19.115-3.987-24.313-5.453-24.313-5.453c-5.187-1.467-14.865-4.194-24.567-9.723c-6.603-3.76-17.246-11.106-27.009-24.978
				l0.213-27.553L1034.579,1658.343z"/>
			
				<linearGradient id="SVGID_00000082338147384201584750000006912104375914186139_" gradientUnits="userSpaceOnUse" x1="1926.6719" y1="1051.0649" x2="1850.7228" y2="1145.1992" gradientTransform="matrix(-0.8633 0.5047 0.5047 0.8633 2082.9607 -259.5109)">
				<stop  offset="0" style="stop-color:#311944"/>
				<stop  offset="1" style="stop-color:#A03976"/>
			</linearGradient>
			<path style="fill:url(#SVGID_00000082338147384201584750000006912104375914186139_);" d="M1031.786,1675.967
				c0,0,11.974,16.436,30.755,9.587c16.815-6.132,6.779-49.562-6.558-54.516c-4.448-1.652-12.619-0.922-18.079,2.485
				c-3.841,2.397-14.097,15.137-8.218,29.416c-4.248-1.231-7.987-0.113-8.923,1.991c-1.189,2.667,2.408,6.302,3.223,7.125
				C1026.809,1674.908,1030.216,1675.706,1031.786,1675.967z"/>
			<path style="fill:#F4F7FA;" d="M1066.547,2009.865c35.44-9.992,64.831,14.823,93.067-4.814
				c28.923-20.114,10.046-54.469,40.115-88.254c32.15-36.123,72.936-18.428,102.695-51.347
				c11.046-12.223,20.985-32.137,21.137-66.09c7.456-0.72,14.595-1.291,21.346-1.692c11.868-0.702,21.147,9.985,18.807,21.636
				l-44.256,220.396c-1.417,7.064-6.891,12.611-13.935,14.122l-317.131,68.057
				C1010.785,2043.323,1040.665,2017.161,1066.547,2009.865z"/>
			
				<linearGradient id="SVGID_00000109748077788771948870000011503868845304984731_" gradientUnits="userSpaceOnUse" x1="2394.5525" y1="2006.8148" x2="2436.2722" y2="1793.9369" gradientTransform="matrix(-1 0 0 1 3763.5703 0)">
				<stop  offset="0" style="stop-color:#311944"/>
				<stop  offset="1" style="stop-color:#A03976"/>
			</linearGradient>
			<path style="fill:url(#SVGID_00000109748077788771948870000011503868845304984731_);" d="M1342.713,1936.555
				c0,0,21.05-19.457,23.34-42.057c2.29-22.602-13.596-40.688-28.985-45.297c-15.389-4.61-23.603,2.189-13.272,24.444
				C1334.128,1895.9,1350.516,1910.345,1342.713,1936.555z"/>
		</g>
		<g>
			<g>
				
					<linearGradient id="SVGID_00000116926687149552718020000015315096097792842409_" gradientUnits="userSpaceOnUse" x1="1232.8326" y1="1503.7882" x2="751.8393" y2="1189.1201">
					<stop  offset="0" style="stop-color:#FFC444"/>
					<stop  offset="0.9964" style="stop-color:#F36F56"/>
				</linearGradient>
				<path style="opacity:0.51;fill:url(#SVGID_00000116926687149552718020000015315096097792842409_);" d="M537.689,1088.923
					v403.871c0,13.409,10.012,24.053,22.344,23.777l725.649-16.277c11.114-0.249,20.11-10.747,20.11-23.449v-382.583
					L537.689,1088.923z"/>
				
					<linearGradient id="SVGID_00000135667663556979841900000006555720055903167161_" gradientUnits="userSpaceOnUse" x1="983.6518" y1="980.0544" x2="649.6194" y2="1526.125">
					<stop  offset="0" style="stop-color:#FF9085"/>
					<stop  offset="1" style="stop-color:#FB6FBB"/>
				</linearGradient>
				<path style="fill:url(#SVGID_00000135667663556979841900000006555720055903167161_);" d="M1285.682,1045.485l-725.649-7.597
					c-12.332-0.129-22.344,10.635-22.344,24.044v41.384l768.103,4.581v-39.202
					C1305.792,1055.992,1296.795,1045.601,1285.682,1045.485z"/>
				<path style="fill:#FFFFFF;" d="M588.926,1070.457c0,5.94-4.424,10.723-9.886,10.681c-5.465-0.041-9.899-4.896-9.899-10.845
					c0-5.948,4.434-10.73,9.899-10.681C584.501,1059.662,588.926,1064.517,588.926,1070.457z"/>
			</g>
			<g>
				<polygon style="fill:#FFFFFF;" points="691.501,1461.114 635.277,1462.17 635.277,1161.078 691.501,1161.191 				"/>
				
					<linearGradient id="SVGID_00000142863700180899955680000013413514605650674061_" gradientUnits="userSpaceOnUse" x1="695.8671" y1="1288.8121" x2="618.7319" y2="1529.5278">
					<stop  offset="0" style="stop-color:#FF9085"/>
					<stop  offset="1" style="stop-color:#FB6FBB"/>
				</linearGradient>
				<polygon style="fill:url(#SVGID_00000142863700180899955680000013413514605650674061_);" points="691.501,1461.114 
					635.277,1462.17 635.277,1319.218 691.501,1318.717 				"/>
				<polygon style="fill:#FFFFFF;" points="769.003,1459.657 713.383,1460.702 713.383,1161.235 769.003,1161.347 				"/>
				
					<linearGradient id="SVGID_00000091699085302570585860000009543274615720875703_" gradientUnits="userSpaceOnUse" x1="759.2368" y1="1368.3253" x2="716.3942" y2="1502.024">
					<stop  offset="0" style="stop-color:#FF9085"/>
					<stop  offset="1" style="stop-color:#FB6FBB"/>
				</linearGradient>
				<polygon style="fill:url(#SVGID_00000091699085302570585860000009543274615720875703_);" points="769.003,1459.657 
					713.383,1460.702 713.383,1389.612 769.003,1388.842 				"/>
				<polygon style="fill:#FFFFFF;" points="845.676,1458.217 790.651,1459.251 790.651,1161.39 845.676,1161.501 				"/>
				
					<linearGradient id="SVGID_00000026847702544868447500000012230722656465996428_" gradientUnits="userSpaceOnUse" x1="829.3629" y1="1405.2218" x2="802.7804" y2="1488.1776">
					<stop  offset="0" style="stop-color:#FF9085"/>
					<stop  offset="1" style="stop-color:#FB6FBB"/>
				</linearGradient>
				<polygon style="fill:url(#SVGID_00000026847702544868447500000012230722656465996428_);" points="845.676,1458.217 
					790.651,1459.251 790.651,1422.129 845.676,1421.237 				"/>
				<polygon style="fill:#FFFFFF;" points="921.533,1456.791 867.093,1457.814 867.093,1161.544 921.533,1161.654 				"/>
				
					<linearGradient id="SVGID_00000034800924934912090510000014228136199425632938_" gradientUnits="userSpaceOnUse" x1="944.5281" y1="1184.5503" x2="825.257" y2="1556.7593">
					<stop  offset="0" style="stop-color:#FF9085"/>
					<stop  offset="1" style="stop-color:#FB6FBB"/>
				</linearGradient>
				<polygon style="fill:url(#SVGID_00000034800924934912090510000014228136199425632938_);" points="921.533,1456.791 
					867.093,1457.814 867.093,1225.721 921.533,1225.586 				"/>
				<polygon style="fill:#FFFFFF;" points="996.589,1455.381 942.723,1456.394 942.723,1161.697 996.589,1161.805 				"/>
				
					<linearGradient id="SVGID_00000104667090272949654080000012528051009956573886_" gradientUnits="userSpaceOnUse" x1="1014.3312" y1="1214.1563" x2="908.2221" y2="1545.2905">
					<stop  offset="0" style="stop-color:#FF9085"/>
					<stop  offset="1" style="stop-color:#FB6FBB"/>
				</linearGradient>
				<polygon style="fill:url(#SVGID_00000104667090272949654080000012528051009956573886_);" points="996.589,1455.381 
					942.723,1456.394 942.723,1251.767 996.589,1251.533 				"/>
				<polygon style="fill:#FFFFFF;" points="1070.853,1453.986 1017.555,1454.987 1017.555,1161.848 1070.853,1161.955 				"/>
				
					<linearGradient id="SVGID_00000128457523089015405940000001685657274855957409_" gradientUnits="userSpaceOnUse" x1="1098.0352" y1="1161.2377" x2="970.1766" y2="1560.2455">
					<stop  offset="0" style="stop-color:#FF9085"/>
					<stop  offset="1" style="stop-color:#FB6FBB"/>
				</linearGradient>
				<polygon style="fill:url(#SVGID_00000128457523089015405940000001685657274855957409_);" points="1070.853,1453.986 
					1017.555,1454.987 1017.555,1204.47 1070.853,1204.417 				"/>
				<polygon style="fill:#FFFFFF;" points="1144.341,1452.605 1091.6,1453.596 1091.6,1161.996 1144.341,1162.103 				"/>
				
					<linearGradient id="SVGID_00000030447735408930495220000007296627474537096101_" gradientUnits="userSpaceOnUse" x1="1157.4604" y1="1240.3076" x2="1063.6718" y2="1532.9937">
					<stop  offset="0" style="stop-color:#FF9085"/>
					<stop  offset="1" style="stop-color:#FB6FBB"/>
				</linearGradient>
				<polygon style="fill:url(#SVGID_00000030447735408930495220000007296627474537096101_);" points="1144.341,1452.605 
					1091.6,1453.596 1091.6,1274.483 1144.341,1274.166 				"/>
				<polygon style="fill:#FFFFFF;" points="1217.063,1451.239 1164.871,1452.219 1164.871,1162.144 1217.063,1162.249 				"/>
				
					<linearGradient id="SVGID_00000075128325864874208270000005187616420983138205_" gradientUnits="userSpaceOnUse" x1="1214.713" y1="1327.2704" x2="1158.3259" y2="1503.2375">
					<stop  offset="0" style="stop-color:#FF9085"/>
					<stop  offset="1" style="stop-color:#FB6FBB"/>
				</linearGradient>
				<polygon style="fill:url(#SVGID_00000075128325864874208270000005187616420983138205_);" points="1217.063,1451.239 
					1164.871,1452.219 1164.871,1351.511 1217.063,1350.907 				"/>
			</g>
		</g>
		<g>
			<g>
				<g>
					<ellipse style="fill:#B7C0CE;" cx="2844.796" cy="3055.014" rx="199.04" ry="81.233"/>
					<path style="fill:#FFFFFF;" d="M3043.836,3045.488c0,42.351-89.113,76.683-199.039,76.683
						c-109.928,0-199.041-34.332-199.041-76.683c0-42.349,89.113-111.644,199.041-111.644
						C2954.723,2933.844,3043.836,3003.139,3043.836,3045.488z"/>
					
						<linearGradient id="SVGID_00000138539319240733666160000018079722028812923293_" gradientUnits="userSpaceOnUse" x1="1091.1852" y1="3008.4802" x2="1425.6763" y2="3008.4802" gradientTransform="matrix(1 0 0 1 1618.1594 0)">
						<stop  offset="0" style="stop-color:#AA80F9"/>
						<stop  offset="0.9964" style="stop-color:#6165D7"/>
					</linearGradient>
					<path style="opacity:0.3;fill:url(#SVGID_00000138539319240733666160000018079722028812923293_);" d="M3043.836,3045.488
						c0-42.35-89.113-111.644-199.039-111.644c-50.757,0-97.05,14.788-132.208,34.86c-2.461,5.155-3.608,10.282-3.142,15.149
						c2.283,23.827,41.145,38.477,63.452,43.307c56.175,12.167,83.606-21.424,129.923-20.143
						c28.635,0.791,68.317,15.177,115.383,76.1C3034.496,3071.999,3043.836,3059.167,3043.836,3045.488z"/>
					<path style="fill:#FFFFFF;" d="M2855.698,2972.309c-7.953,1.98-15.373,1.901-22.354,0.128c-6.331-1.608-10.678-7.466-10.678-14
						l0.001-224.435h44.259v224.17C2866.926,2964.906,2862.232,2970.684,2855.698,2972.309z"/>
					
						<linearGradient id="SVGID_00000160896801530059970220000013268333876482882981_" gradientUnits="userSpaceOnUse" x1="1204.5063" y1="2853.8914" x2="1248.7664" y2="2853.8914" gradientTransform="matrix(1 0 0 1 1618.1594 0)">
						<stop  offset="0" style="stop-color:#AA80F9"/>
						<stop  offset="0.9964" style="stop-color:#6165D7"/>
					</linearGradient>
					<path style="opacity:0.65;fill:url(#SVGID_00000160896801530059970220000013268333876482882981_);" d="M2855.698,2972.309
						c-7.953,1.98-15.373,1.901-22.354,0.128c-6.331-1.608-10.678-7.466-10.678-14l0.001-224.435h44.259v224.17
						C2866.926,2964.906,2862.232,2970.684,2855.698,2972.309z"/>
					<g>
						
							<linearGradient id="SVGID_00000101096637489827450000000013886603223989336723_" gradientUnits="userSpaceOnUse" x1="1446.35" y1="2806.8269" x2="1365.2037" y2="2701.0908" gradientTransform="matrix(1 0 0 1 1618.1594 0)">
							<stop  offset="0" style="stop-color:#311944"/>
							<stop  offset="1" style="stop-color:#893976"/>
						</linearGradient>
						<path style="fill:url(#SVGID_00000101096637489827450000000013886603223989336723_);" d="M2610.935,2639.546l67.614-42.742
							c2.813-15.967,34.683-183,164.074-235.452c52.618-21.33,109.245-18.799,140.32-17.41
							c62.035,2.771,106.284,4.747,127.566,34.339c27.329,37.997-18.507,72.455-9.016,181.143
							c3.87,44.323,13.713,64.008,1.453,93.371c-14.686,35.173-48.743,54.669-75.222,65.644
							c-31.654,18.381-86.767,44.574-159.56,50.954c-122.615,10.746-214.152-41.852-245.631-61.976
							c-13.998-4.414-24.515-16.053-27.492-30.425C2592.024,2662.416,2598.356,2647.498,2610.935,2639.546z"/>
						
							<linearGradient id="SVGID_00000031203944216161450040000005307639170660450440_" gradientUnits="userSpaceOnUse" x1="1261.3562" y1="2570.6355" x2="1365.6224" y2="2294.248" gradientTransform="matrix(1 0 0 1 1618.1594 0)">
							<stop  offset="0" style="stop-color:#311944"/>
							<stop  offset="1" style="stop-color:#893976"/>
						</linearGradient>
						<path style="fill:url(#SVGID_00000031203944216161450040000005307639170660450440_);" d="M2996.576,2352.869
							c45.882,1.359,74.394,0.825,90.162,21.312c16.553,21.503-0.177,39.83-3.278,116.391
							c-2.827,69.797,9.479,97.396-13.076,136.077c0,0-11.462,19.655-29.557,34.42c-63.942,52.173-228.912,51.542-298.346-57.383
							c-55.394-86.9-32.298-214.989,32.787-257.374C2807.156,2325.548,2814.474,2347.477,2996.576,2352.869z"/>
						
							<linearGradient id="SVGID_00000131351245745024762120000011896007632332071606_" gradientUnits="userSpaceOnUse" x1="1203.0441" y1="2619.9363" x2="1201.4529" y2="2755.1951" gradientTransform="matrix(1 0 0 1 1618.1594 0)">
							<stop  offset="0" style="stop-color:#311944"/>
							<stop  offset="1" style="stop-color:#893976"/>
						</linearGradient>
						<path style="fill:url(#SVGID_00000131351245745024762120000011896007632332071606_);" d="M2606.017,2601.162l67.614-42.742
							c0,0,181.105-59.542,348.673,24.409c18.762,9.403,30.439,28.814,30.439,49.802c0,16.103-9.672,30.631-24.53,36.844
							c-29.231,19.957-86.301,52.908-164.968,61.532c-125.068,13.709-218.122-43.562-245.631-61.978
							c-13.997-4.413-24.514-16.051-27.491-30.424C2587.106,2624.031,2593.438,2609.112,2606.017,2601.162z"/>
					</g>
					<g>
						
							<linearGradient id="SVGID_00000078735129724328086490000015941992291130689722_" gradientUnits="userSpaceOnUse" x1="506.1351" y1="2096.2014" x2="1011.7712" y2="2439.6521" gradientTransform="matrix(1 0 0 1 1618.1594 0)">
							<stop  offset="0" style="stop-color:#FFC444"/>
							<stop  offset="0.9964" style="stop-color:#F36F56"/>
						</linearGradient>
						<path style="fill:url(#SVGID_00000078735129724328086490000015941992291130689722_);" d="M2158.133,2361.15
							c0,0,288.147,90.447,280.939-241.462l159.623,47.211c0,0,15.477,385.3-382.285,243.407L2158.133,2361.15z"/>
						
							<linearGradient id="SVGID_00000178912422849559641420000011447076979874542981_" gradientUnits="userSpaceOnUse" x1="898.7553" y1="3168.2544" x2="1001.7848" y2="3168.2544" gradientTransform="matrix(1 0 0 1 1618.1594 0)">
							<stop  offset="0" style="stop-color:#311944"/>
							<stop  offset="1" style="stop-color:#6B3976"/>
						</linearGradient>
						<path style="fill:url(#SVGID_00000178912422849559641420000011447076979874542981_);" d="M2583.924,3135.56h26.053
							c6.448,10.398,13.602,25.185,7.869,34.686c-3.974,6.583-10.665,4.871-29.474,10.838c-26.3,8.344-32.653,17.857-55.156,19.445
							c-8.254,0.582-14.28,1.007-15.895-1.932C2512.692,3190.166,2548.413,3161.486,2583.924,3135.56z"/>
						
							<linearGradient id="SVGID_00000026144148398356758930000010984302315175945373_" gradientUnits="userSpaceOnUse" x1="943.9327" y1="3227.811" x2="1116.0374" y2="2711.4956" gradientTransform="matrix(1 0 0 1 1618.1594 0)">
							<stop  offset="0" style="stop-color:#311944"/>
							<stop  offset="1" style="stop-color:#A03976"/>
						</linearGradient>
						<path style="fill:url(#SVGID_00000026144148398356758930000010984302315175945373_);" d="M2587.95,3144.273
							c2.201,0.898,4.388,1.873,6.524,2.642c7.222,2.604,14.746-2.951,14.787-10.626c0.001-0.243,0.003-0.491,0.005-0.741
							c0.123-11.348,2.431-20.48,4.244-26.195c-9.583-0.444-19.167-0.888-28.752-1.333c2.199,12.725,1.436,21.807-0.6,28.412
							C2583.175,3139.619,2584.861,3143.014,2587.95,3144.273z"/>
						
							<linearGradient id="SVGID_00000176765980257774787230000011390351755712726446_" gradientUnits="userSpaceOnUse" x1="697.6762" y1="3098.335" x2="800.7048" y2="3098.335" gradientTransform="matrix(1 0 0 1 1618.1594 0)">
							<stop  offset="0" style="stop-color:#311944"/>
							<stop  offset="1" style="stop-color:#6B3976"/>
						</linearGradient>
						<path style="fill:url(#SVGID_00000176765980257774787230000011390351755712726446_);" d="M2382.844,3065.641h26.056
							c6.447,10.397,13.6,25.185,7.867,34.686c-3.973,6.583-10.664,4.871-29.473,10.838c-26.3,8.344-32.653,17.856-55.156,19.445
							c-8.254,0.582-14.281,1.006-15.895-1.933C2311.613,3120.246,2347.333,3091.567,2382.844,3065.641z"/>
						
							<linearGradient id="SVGID_00000164472562744347447880000006391517294500188055_" gradientUnits="userSpaceOnUse" x1="742.8536" y1="3157.8896" x2="914.9555" y2="2641.5825" gradientTransform="matrix(1 0 0 1 1618.1594 0)">
							<stop  offset="0" style="stop-color:#311944"/>
							<stop  offset="1" style="stop-color:#A03976"/>
						</linearGradient>
						<path style="fill:url(#SVGID_00000164472562744347447880000006391517294500188055_);" d="M2386.871,3074.354
							c2.201,0.898,4.388,1.872,6.525,2.642c7.22,2.604,14.744-2.951,14.784-10.626c0.002-0.243,0.003-0.491,0.006-0.742
							c0.124-11.348,2.431-20.48,4.244-26.195c-9.584-0.444-19.167-0.889-28.752-1.333c2.199,12.724,1.436,21.807-0.599,28.411
							C2382.097,3069.699,2383.781,3073.094,2386.871,3074.354z"/>
						
							<linearGradient id="SVGID_00000158731122311230705450000009500741630407401659_" gradientUnits="userSpaceOnUse" x1="920.4139" y1="3094.707" x2="1042.6166" y2="2707.9558" gradientTransform="matrix(1 0 0 1 1618.1594 0)">
							<stop  offset="0" style="stop-color:#444B8C"/>
							<stop  offset="0.9964" style="stop-color:#3E4177"/>
						</linearGradient>
						<path style="fill:url(#SVGID_00000158731122311230705450000009500741630407401659_);" d="M2383.126,3052.229
							c-19.609-99.575-17.398-181.832-12.087-236.683c10.274-106.086,15.716-162.287,58.302-214.298
							c40.034-48.897,77.28-50.59,166.372-133.392c29.364-27.291,51.543-51.48,65.39-67.262
							c133.605-39.193,256.837-23.311,311.214,48.344c6.284,8.28,22.014,26.238,25.057,52.719
							c6.867,59.75-51.84,131.68-117.716,146.7c-83.721,19.091-132.292-66.875-206.468-38.272
							c-20.748,8-38.339,27.826-73.524,67.479c-44.756,50.444-69.916,96.989-79.435,115.615
							c-28.344,55.461-49.838,96.401-52.973,149.461c-0.729,12.361-1.166,37.334-15.644,64.267
							c-11.114,20.674-26.177,34.46-37.385,42.978C2403.861,3050.664,2393.494,3051.447,2383.126,3052.229z"/>
						
							<linearGradient id="SVGID_00000005239667538173344280000007444364309602074529_" gradientUnits="userSpaceOnUse" x1="933.3973" y1="2721.0784" x2="1229.5034" y2="2781.5081" gradientTransform="matrix(1 0 0 1 1618.1594 0)">
							<stop  offset="0" style="stop-color:#444B8C"/>
							<stop  offset="0.9964" style="stop-color:#3E4177"/>
						</linearGradient>
						<path style="fill:url(#SVGID_00000005239667538173344280000007444364309602074529_);" d="M2565.498,3104.382
							c8.07,15.055,23.936,23.949,58.417,18.13c48.701-55.313,64.795-104.408,70.5-138.989
							c12.321-74.679-18.63-113.08,10.071-173.232c18.676-39.14,50.145-61.373,76.47-79.972
							c63.455-44.83,90.109-27.36,144.333-68.636c20.354-15.493,69.084-52.585,75.628-113.711
							c5.688-53.117-23.857-92.854-28.6-99.035c-38.178-49.748-109.813-69.934-181.214-51.584
							c-10.027,25.307-28.281,64.914-60.429,106.759c-40.694,52.97-67.17,62.039-108.773,114.817
							c-19.438,24.657-52.621,66.752-70.131,126.275c-10.178,34.6-11.497,62.984-0.371,202.061
							C2554.882,2990.803,2559.476,3043.84,2565.498,3104.382z"/>
						
							<linearGradient id="SVGID_00000168094342247280276720000000538844900472146063_" gradientUnits="userSpaceOnUse" x1="781.3523" y1="2025.3749" x2="1627.6377" y2="2600.2097" gradientTransform="matrix(1 0 0 1 1618.1594 0)">
							<stop  offset="0" style="stop-color:#FFC444"/>
							<stop  offset="0.9964" style="stop-color:#F36F56"/>
						</linearGradient>
						<path style="fill:url(#SVGID_00000168094342247280276720000000538844900472146063_);" d="M2439.072,2119.688
							c6.417-83.186,233.967-191.834,414.336-116.013c213.622,89.799,215.824,377.301,215.668,398.012
							c-0.671,88.804-29.721,189.707-62.353,191.94c-23.911,1.636-25.277-51.38-74.59-80.319
							c-52.796-30.981-93.07,5.235-217.042,1.604c-56.422-1.654-120.277-3.525-134.959-36.259
							c-14.813-33.032,37.052-60.447,42.598-113.777C2634.125,2255.286,2432.86,2200.241,2439.072,2119.688z"/>
						
							<linearGradient id="SVGID_00000131330854927874102450000012361177349124089487_" gradientUnits="userSpaceOnUse" x1="706.1176" y1="2136.1365" x2="1552.4036" y2="2710.9717" gradientTransform="matrix(1 0 0 1 1618.1594 0)">
							<stop  offset="0" style="stop-color:#FFC444"/>
							<stop  offset="0.9964" style="stop-color:#F36F56"/>
						</linearGradient>
						<path style="opacity:0.3;fill:url(#SVGID_00000131330854927874102450000012361177349124089487_);" d="M3029.5,2459.444
							c-15.665-28.561-49.33-62.059-93.225-72.509c-57.156-13.607-82.542,23.562-124.301,6.215
							c-51.29-21.305-31.359-85.008-82.868-116.014c-43.933-26.448-86.636,2.894-143.21,0.663
							c24.048,25.488,40.298,53.751,36.834,87.076c-5.545,53.33-57.411,80.745-42.598,113.777
							c14.682,32.734,78.537,34.605,134.959,36.259c123.971,3.631,164.245-32.585,217.042-1.604
							c49.313,28.939,50.679,81.955,74.59,80.319c13.751-0.941,26.857-19.443,37.481-47.138
							C3048.049,2514.722,3043.24,2484.493,3029.5,2459.444z"/>
						
							<linearGradient id="SVGID_00000151536903458913179460000009251825581877724334_" gradientUnits="userSpaceOnUse" x1="967.27" y1="1989.2162" x2="1023.2051" y2="2065.8679" gradientTransform="matrix(1 0 0 1 1618.1594 0)">
							<stop  offset="0" style="stop-color:#311944"/>
							<stop  offset="0.2163" style="stop-color:#49204E"/>
							<stop  offset="0.3096" style="stop-color:#532353"/>
							<stop  offset="1" style="stop-color:#A03976"/>
						</linearGradient>
						<path style="fill:url(#SVGID_00000151536903458913179460000009251825581877724334_);" d="M2571.357,1994.259l7.961,3.881
							c15.459,7.536,32.931,9.9,49.838,6.745l22.626-4.223c4.97-0.927,8.728,4.495,6.019,8.765
							c-12.755,20.111-45.643,58.009-99.565,27.646L2571.357,1994.259z"/>
						
							<linearGradient id="SVGID_00000014615092478358649410000015457530996653544112_" gradientUnits="userSpaceOnUse" x1="59.9831" y1="2071.9192" x2="-24.5836" y2="1857.1353" gradientTransform="matrix(0.9533 -0.3021 0.3021 0.9533 1967.9587 141.3395)">
							<stop  offset="0" style="stop-color:#444B8C"/>
							<stop  offset="0.9964" style="stop-color:#26264F"/>
						</linearGradient>
						<path style="fill:url(#SVGID_00000014615092478358649410000015457530996653544112_);" d="M2515.254,1994.769
							c-27.781-10.078-37.244-75.821-23.503-83.03c7.893-4.141,15.075,15.471,44.339,22.999c22.79,5.863,37.293-1.182,47.016,10.221
							c4.568,5.355,7.3,13.866,7.228,21.392c-0.038,3.876-0.992,9.035-3.612,19.176c-2.323,8.999-2.079,8.632-2.834,11.276
							c-1.813,6.355-5.768,17.385-15.103,31.928c-2.071-3.383-4.884-7.489-8.62-11.722c-1.436-1.629-7.142-7.964-14.147-12.485
							C2533.263,1996.291,2523.219,1997.66,2515.254,1994.769z"/>
						
							<linearGradient id="SVGID_00000056395774240553812860000000122825506009542581_" gradientUnits="userSpaceOnUse" x1="1086.2269" y1="1880.0239" x2="854.2" y2="2066.4744" gradientTransform="matrix(1 0 0 1 1618.1594 0)">
							<stop  offset="0" style="stop-color:#311944"/>
							<stop  offset="0.2163" style="stop-color:#49204E"/>
							<stop  offset="0.3096" style="stop-color:#532353"/>
							<stop  offset="1" style="stop-color:#A03976"/>
						</linearGradient>
						<path style="fill:url(#SVGID_00000056395774240553812860000000122825506009542581_);" d="M2581.787,2013.02
							c0,0-6.022,24.964-31.891,31.452c-23.161,5.808-42.821-44-31.796-59.45c3.678-5.154,12.878-9.758,21.46-10.08
							c5.068-0.19,7.262,1.237,15.538,0.765c7.633-0.435,9.373-1.855,12.074-0.748c3.381,1.386,7.091,6.249,7.426,22.549
							c2.921-5.773,7.576-9.123,11.815-8.567c0.676,0.089,2.574,0.648,3.967,1.973
							C2595.416,1995.707,2592.494,2004.832,2581.787,2013.02z"/>
					</g>
				</g>
				<g>
					<ellipse style="fill:#BFC8D6;" cx="2222.356" cy="2570.93" rx="680.274" ry="124.155"/>
					<rect x="1542.082" y="2548.169" style="fill:#BFC8D6;" width="1360.549" height="22.761"/>
					<ellipse style="fill:#D8DEE8;" cx="2222.356" cy="2548.169" rx="680.274" ry="124.155"/>
					<polygon style="fill:#B7C0CE;" points="2394.444,2427.287 2570.853,2454.479 2570.853,2466.489 2497.446,2501.847 
						2343.713,2463.03 					"/>
					<polygon style="fill:#FFFFFF;" points="2390.285,2401.12 2570.853,2454.479 2497.446,2489.836 2343.713,2451.02 					"/>
					<g>
						<path style="fill:#D8DEE8;" d="M2438.931,2541.05l-28.19-371.982c-0.446-5.886-5.484-11.374-12.165-13.253l-482.495-135.631
							c-4.319-1.214-12.601-0.026-15.89,2.015c-3.287,2.04-7.017,1.6-6.854,5.394l20.166,343.76
							c0.336,5.717,5.039,11.139,11.477,13.23l503.583,163.586L2438.931,2541.05z"/>
						<path style="fill:#FFFFFF;" d="M2428.564,2548.17l-29.213-375.094c-0.458-5.88-5.492-11.356-12.162-13.23l-482.516-135.637
							c-4.32-1.214-8.734-0.735-12.023,1.304c-3.287,2.041-5.101,5.425-4.939,9.221l14.526,340.353
							c0.25,5.851,5.098,11.427,11.718,13.482L2428.564,2548.17z"/>
						<path style="fill:#F4F7FA;" d="M2428.564,2548.169l-514.609-159.6c-6.621-2.055-11.469-7.631-11.718-13.482l-4.381-102.646
							c152.764,97.479,345.114,135.118,524.141,191.411L2428.564,2548.169z"/>
						<path style="fill:#FFFFFF;" d="M2172.495,2559.593l18.256,11.337c0,0,86.665-38.433,91.855-40.74
							c0.824-0.365,4.387-4.802,0-6.629c-23.224-9.667-111.84-32.572-111.84-32.572l-46.121,21.907L2172.495,2559.593z"/>
						<path style="fill:#F4F7FA;" d="M2172.495,2552.962l18.256,11.338c0,0,86.665-38.432,91.855-40.738
							c5.188-2.305-111.84-39.201-111.84-39.201l-46.121,21.906L2172.495,2552.962z"/>
						<path style="fill:#FFFFFF;" d="M2082.37,2265.773c0,0-43.814,234.44-48.427,247.508
							c-4.257,12.063,119.832,51.192,149.504,58.61c2.468,0.618,6.145-0.464,7.303-0.961c8.456,0.768-30.938-283.059-30.938-283.059
							l-2.882-0.576L2082.37,2265.773z"/>
						<path style="fill:#FFFFFF;" d="M2082.37,2265.773c0,0-51.5,235.209-56.112,248.276
							c-4.612,13.066,143.739,55.344,156.807,57.649c8.453,0.77-26.135-284.403-26.135-284.403L2082.37,2265.773z"/>
					</g>
				</g>
			</g>
			
				<linearGradient id="SVGID_00000180343177938705453340000006559499796243870350_" gradientUnits="userSpaceOnUse" x1="1026.2469" y1="2460.1392" x2="1602.1733" y2="1751.6262" gradientTransform="matrix(1 0 0 1 1618.1594 0)">
				<stop  offset="0" style="stop-color:#FFC444"/>
				<stop  offset="0.9964" style="stop-color:#F36F56"/>
			</linearGradient>
			<path style="fill:url(#SVGID_00000180343177938705453340000006559499796243870350_);" d="M2540.294,2417.216l-4.435,39.287
				c0,0,180.053,77.595,332.637,0c152.582-77.596,91.637-365.806,91.637-365.806s-48.854-88.837-160.724-76.407
				c-111.871,12.431-49.81,153.304-30.084,246.53C2789.05,2354.046,2753.523,2441.025,2540.294,2417.216z"/>
			
				<linearGradient id="SVGID_00000124863169818973701180000015209756811007496635_" gradientUnits="userSpaceOnUse" x1="893.5782" y1="2420.8806" x2="863.193" y2="2522.3948" gradientTransform="matrix(1 0 0 1 1618.1594 0)">
				<stop  offset="0" style="stop-color:#311944"/>
				<stop  offset="0.2163" style="stop-color:#49204E"/>
				<stop  offset="0.3096" style="stop-color:#532353"/>
				<stop  offset="1" style="stop-color:#A03976"/>
			</linearGradient>
			<path style="fill:url(#SVGID_00000124863169818973701180000015209756811007496635_);" d="M2540.294,2417.216l-28.617-5.285
				c-5.661-1.046-11.508,0.064-16.392,3.112l-31.435,17.109c-7.116,3.873-5.232,14.765,2.812,15.737
				c5.615,0.677,12.421,0.871,20.448,0.069c27.623-2.763,36.04,7.422,48.75,8.545
				C2548.57,2457.625,2565.167,2432.743,2540.294,2417.216z"/>
		</g>
		<g>
			
				<linearGradient id="SVGID_00000083781226254086534690000000660292872353027219_" gradientUnits="userSpaceOnUse" x1="2633.927" y1="1557.8685" x2="2372.6641" y2="2513.0229">
				<stop  offset="0.0036" style="stop-color:#E38DDD"/>
				<stop  offset="1" style="stop-color:#9571F6"/>
			</linearGradient>
			<path style="opacity:0.51;fill:url(#SVGID_00000083781226254086534690000000660292872353027219_);" d="M2194.715,1544.203
				v400.978c0,13.313,10.154,23.679,22.663,23.154l740.634-31.045c11.413-0.479,20.654-11.154,20.654-23.846v-382.283
				L2194.715,1544.203z"/>
			
				<linearGradient id="SVGID_00000138551759074806784000000004865447549791549884_" gradientUnits="userSpaceOnUse" x1="2651.8142" y1="1421.0281" x2="2300.0583" y2="1996.0728">
				<stop  offset="0" style="stop-color:#444B8C"/>
				<stop  offset="0.9964" style="stop-color:#26264F"/>
			</linearGradient>
			<path style="fill:url(#SVGID_00000138551759074806784000000004865447549791549884_);" d="M2958.011,1482.913l-740.634,10.079
				c-12.509,0.17-22.663,11.1-22.663,24.413v41.087l783.95-13.708v-39.171C2978.665,1492.92,2969.425,1482.758,2958.011,1482.913z"
				/>
			<polygon style="opacity:0.74;fill:#FFFFFF;" points="2898.405,1870.48 2282.121,1893.662 2282.121,1620.038 2898.405,1606.938 
							"/>
			<path style="fill:#FFFFFF;" d="M2898.405,1870.48l-616.285,23.182v-175.901c20.051,118.938,41.406,144.7,57.501,145.407
				c22.658,0.996,34.854-47.675,69.126-50.092c34.026-2.4,45.504,44.043,70.993,41.548c48.464-4.745,61.637-178.517,100.945-180.728
				c31.225-1.756,52.35,106.488,79.873,101.336c20.114-3.766,24.974-64.678,40.221-64.478c13.814,0.182,14.398,50.32,32.579,54.423
				c26.648,6.013,52.569-95.685,89.314-97.312c20.349-0.901,45.696,28.827,75.732,131.595
				C2898.405,1855.934,2898.405,1814.007,2898.405,1870.48z"/>
			<path style="fill:#FFFFFF;" d="M2247.389,1523.741c0,5.901-4.49,10.755-10.032,10.845c-5.546,0.089-10.044-4.627-10.044-10.534
				s4.499-10.762,10.044-10.845C2242.898,1513.125,2247.389,1517.841,2247.389,1523.741z"/>
		</g>
	</g>
</g>
</svg>
